<?xml version="1.0"?>
<svg xmlns="http://www.w3.org/2000/svg" height="512px" viewBox="-78 0 512 512" width="512px"><path d="m327.5 256.5h-8.277344c.515625-2.605469.777344-5.265625.777344-7.929688v-184.742187c4.710938-2.109375 8-6.84375 8-12.328125v-15.277344c0-19.972656-16.25-36.222656-36.222656-36.222656h-227.28125c-20.675782 0-37.496094 16.820312-37.496094 37.496094v14.003906c0 5.484375 3.289062 10.21875 8 12.328125v31.921875c0 4.140625 3.355469 7.5 7.5 7.5s7.5-3.359375 7.5-7.5v-30.75h255v183.570312c0 2.738282-.414062 5.390626-1.230469 7.929688h-30.394531c-4.144531 0-7.5 3.359375-7.5 7.5s3.355469 7.5 7.5 7.5h35.25.097656.140625 18.636719c6.894531 0 12.5 5.605469 12.5 12.5v2.5h-325v-2.5c0-6.894531 5.605469-12.5 12.5-12.5h18.632812.140626.101562 195.375c4.144531 0 7.5-3.359375 7.5-7.5s-3.355469-7.5-7.5-7.5h-190.519531c-.816407-2.539062-1.230469-5.195312-1.230469-7.929688v-120.570312c0-4.140625-3.355469-7.5-7.5-7.5s-7.5 3.359375-7.5 7.5v120.570312c0 2.664063.261719 5.324219.777344 7.929688h-8.277344c-15.164062 0-27.5 12.335938-27.5 27.5v6c0 6.339844 5.160156 11.5 11.5 11.5h.5v53.5c0 17.699219 5.363281 34.6875 15.511719 49.125 2.378906 3.390625 7.054687 4.207031 10.445312 1.824219 3.390625-2.382813 4.207031-7.058594 1.824219-10.449219-8.359375-11.898438-12.78125-25.902344-12.78125-40.5v-53.5h301v53.5c0 38.875-31.625 70.5-70.5 70.5-10.8125 0-20.984375 4.210938-28.648438 11.859375-7.640624 7.660156-11.851562 17.828125-11.851562 28.640625v1h-79v-1c0-22.332031-18.167969-40.5-40.5-40.5-13.003906 0-25.707031-3.566406-36.738281-10.3125-3.53125-2.160156-8.148438-1.046875-10.3125 2.488281-2.160157 3.53125-1.046875 8.148438 2.488281 10.308594 13.386719 8.1875 28.796875 12.515625 44.5625 12.515625 14.0625 0 25.5 11.4375 25.5 25.5v1.648438c-10.3125 2.484374-18 11.785156-18 22.851562v10c0 6.339844 5.160156 11.5 11.5 11.5h122c6.339844 0 11.5-5.160156 11.5-11.5v-10c0-11.066406-7.6875-20.367188-18-22.851562v-1.648438c0-6.808594 2.652344-13.21875 7.460938-18.03125 4.820312-4.816406 11.226562-7.46875 18.039062-7.46875 47.144531 0 85.5-38.355469 85.5-85.5v-53.5h.5c6.339844 0 11.5-5.160156 11.5-11.5v-6c0-15.164062-12.335938-27.5-27.5-27.5zm-285.5-219.003906c0-12.402344 10.09375-22.496094 22.496094-22.496094h227.28125c11.703125 0 21.222656 9.519531 21.222656 21.222656v13.777344h-271zm193 453.003906v6.5h-115v-6.5c0-4.6875 3.8125-8.5 8.5-8.5h98c4.6875 0 8.5 3.8125 8.5 8.5zm0 0" fill="#21436e"/></svg>
